<svg viewBox="0 0 1900 1900" height="2533.333" width="2533.333" xmlns="http://www.w3.org/2000/svg" version="1.0"><path d="M908 176.2C732.5 189.4 573.3 288 481.9 440c-37.9 63.2-62.7 134.1-72.3 207.5-4 30.3-4.6 42.7-4.6 99.6v53.6l-7.4-3.9c-4.1-2.1-10.9-4.7-15.2-5.8-7.5-1.9-11.4-2-122.9-2-111.3 0-115.4.1-122.9 2-19.3 4.9-36.1 18.3-44.8 35.7-8.5 17-7.9-5.1-7.6 254.3l.3 230.5 2.7 7.6c8.2 23 26.5 40.1 49.4 45.9 7.5 1.9 11.6 2 122.9 2 111.3 0 115.4-.1 122.9-2 22.9-5.8 41.2-22.9 49.4-45.9l2.7-7.6.6-311c.4-227.3.9-314.2 1.8-323 4.5-46.1 10.4-76.4 21.6-111.2 32.7-101.3 89.8-183.8 174-251.3 61.7-49.4 148-88.6 223.5-101.4 33.6-5.7 58.8-7.8 94-7.8 57.5 0 105.3 7.1 153.7 22.7 103.6 33.4 188.5 93.1 256.4 180.5 23.6 30.3 48.3 73.2 65.3 113.5 8.4 19.9 20.3 55.3 25 74.5 5.4 22.3 9.7 49 12.7 80.5.9 8.8 1.4 95.7 1.8 323l.6 311 2.7 7.6c8.2 23 26.5 40.1 49.4 45.9 7.5 1.9 11.6 2 122.9 2 111.3 0 115.4-.1 122.9-2 22.9-5.8 41.2-22.9 49.4-45.9l2.7-7.6v-467l-2.7-7.6c-8.2-23-26.5-40.1-49.4-45.9-7.5-1.9-11.6-2-122.9-2-111.5 0-115.4.1-122.9 2-4.3 1.1-11.1 3.7-15.2 5.8l-7.4 3.9v-53.6c0-56.9-.6-69.4-4.5-99.5-22-165.8-119.1-312.1-264-397.8-71.4-42.2-153-67.6-237-73.8-16.4-1.2-64.9-1.1-81.5.2z"></path><path d="M594 790.5C533.9 800 485.4 846.9 472.3 908c-1.7 8.1-1.8 24.2-1.8 361s.1 352.9 1.8 361c6.1 28.7 19.3 53.4 39.4 74.1 20.7 21.3 44.4 34.7 73.7 41.7l11.1 2.7h353c340.7 0 353.3-.1 361.5-1.9 21-4.6 41.1-13.4 57.8-25.3 5-3.6 13.8-11.4 19.5-17.2 20.3-21 32.9-44.8 39.3-74.1 1.8-8.2 1.9-20.8 1.9-361.5v-353l-2.7-11.1c-12.8-53.4-51.8-94.9-103.3-109.9-20.1-5.8 2.5-5.5-374.5-5.4-284.9.1-348 .3-355 1.4zm377.5 299.9c17.8 3.3 25.2 7.2 29.5 15.7 4.2 8.1 4.4 14.2 3.2 73.5-1.3 63.3-.9 69.8 4.4 80.5 2.9 5.8 8.6 10.9 12.2 10.9 11.9-.1 31.6-21.9 57.5-63.7 11.2-18.2 29.5-54.1 38.1-75.3 3.3-8 7.3-16.4 8.9-18.6 5.2-7.5 2.8-7.2 71.8-8 68-.7 69.3-.6 76.1 5.4 12.3 11.1-5.5 48-54.3 112.2-7.3 9.6-19.5 25.7-27 35.7-22 29.1-25.7 39.1-19.4 52 3 6 7.8 11 46.5 48.8 28.5 27.8 45.4 48.4 54.1 66 2.8 5.8 3.4 8.1 3.4 13.7 0 7.7-1.6 10.5-8.3 15.1-8.7 5.9-13.6 6.4-69.7 7.1-57.1.8-56 .9-71-6.3-14.1-6.8-23.6-15.1-48.5-43.1-25.5-28.6-35.9-37-45.7-37-6 0-10.1 2-14.5 6.8-8.8 9.7-12.5 23.1-14.7 52.4-1.3 16.9-4.5 21.5-17.6 25.4-5.1 1.4-9.7 1.6-35.9 1.1-21.4-.4-32.6-1-38.6-2.1-50.4-9.5-91.8-31.3-128.1-67.6-15.5-15.5-24.2-25.6-39.8-46.3-28.9-38.5-59.5-89.6-90.6-151.2-22.9-45.5-31.8-65.6-32.3-73.2-.4-5.8-.2-6.4 2.5-9.2 5.4-5.4 6.4-5.5 63.2-5.9l52.3-.3 6.3 3c7.9 3.7 10.6 7.2 16.9 22.3 17 40 44.7 89.3 65.9 117.2 12.8 16.9 24.6 25.6 32.4 24.1 5.6-1 10.6-6.6 13.1-14.7 4.4-14.3 5.6-26.3 5.5-58.3 0-42-2.7-59.4-10.6-69.6-4.3-5.6-12.6-10.5-21.7-12.8-9.7-2.4-10.1-4-3.1-11.4 9.5-10.1 18.5-12.9 50.6-16.1 2.2-.2 18.4-.3 36-.1 24.3.2 34.2.7 41 1.9z"></path></svg>